<?xml version="1.0" encoding="iso-8859-1"?>
<!-- Generator: Adobe Illustrator 19.0.0, SVG Export Plug-In . SVG Version: 6.00 Build 0)  -->
<svg version="1.1" id="Capa_1" xmlns="http://www.w3.org/2000/svg" xmlns:xlink="http://www.w3.org/1999/xlink" x="0px" y="0px"
	 viewBox="0 0 512 512" style="enable-background:new 0 0 512 512;" xml:space="preserve">
<path style="fill:#B38A65;" d="M400.304,101.241c-37.866,0-68.671,30.806-68.671,68.671v91.09l-46.554,50.738l22.121,20.296
	l24.433-26.629v170.802h30.021v-99.386l19.71,18.504l20.547-21.887l-40.258-37.794V169.913c0-21.312,17.338-38.651,38.65-38.651
	s38.65,17.339,38.65,38.651v38.578h30.021v-38.578C468.976,132.047,438.169,101.241,400.304,101.241z"/>
<path style="fill:#C06100;" d="M512,257.154c0,43.518-48.669,76.53-50.737,77.906l-7.298,4.88l-7.298-4.88
	c-2.076-1.376-50.737-34.388-50.737-77.906s48.66-76.522,50.737-77.906l7.298-4.88l7.298,4.88
	C463.331,180.633,512,213.638,512,257.154z"/>
<path style="fill:#9A4C00;" d="M512,257.154c0,43.518-48.669,76.53-50.737,77.906l-7.298,4.88V174.369l7.298,4.88
	C463.331,180.633,512,213.638,512,257.154z"/>
<path style="fill:#C8AD92;" d="M263.87,283.68l-55.737-60.745V114.219c0-43.245-35.183-78.429-78.429-78.429
	s-78.429,35.183-78.429,78.429v45.593h30.021v-45.593c0-26.692,21.715-48.408,48.408-48.408c26.692,0,48.408,21.715,48.408,48.408
	v197.051l-48.439,45.474l20.548,21.887l27.892-26.184V476.21h30.021V267.34l33.617,36.638L263.87,283.68z"/>
<path style="fill:#C06100;" d="M132.573,217.323c0,49.705-55.589,87.412-57.951,88.983l-8.336,5.574l-8.336-5.574
	C55.579,304.735,0,267.028,0,217.323s55.579-87.402,57.951-88.983l8.336-5.574l8.336,5.574
	C76.984,129.922,132.573,167.618,132.573,217.323z"/>
<path style="fill:#9A4C00;" d="M132.573,217.323c0,49.705-55.589,87.412-57.951,88.983l-8.336,5.574V122.767l8.336,5.574
	C76.984,129.922,132.573,167.618,132.573,217.323z"/>
<g>
</g>
<g>
</g>
<g>
</g>
<g>
</g>
<g>
</g>
<g>
</g>
<g>
</g>
<g>
</g>
<g>
</g>
<g>
</g>
<g>
</g>
<g>
</g>
<g>
</g>
<g>
</g>
<g>
</g>
</svg>
