<?xml version="1.0" encoding="iso-8859-1"?>
<!-- Generator: Adobe Illustrator 19.0.0, SVG Export Plug-In . SVG Version: 6.00 Build 0)  -->
<svg version="1.1" id="Capa_1" xmlns="http://www.w3.org/2000/svg" xmlns:xlink="http://www.w3.org/1999/xlink" x="0px" y="0px"
	 viewBox="0 0 511.998 511.998" style="enable-background:new 0 0 511.998 511.998;" xml:space="preserve">
<linearGradient id="SVGID_1_" gradientUnits="userSpaceOnUse" x1="255.9991" y1="513.907" x2="255.9991" y2="2.091" gradientTransform="matrix(1 0 0 -1 0 513.9981)">
	<stop  offset="0" style="stop-color:#2AF598"/>
	<stop  offset="1" style="stop-color:#009EFD"/>
</linearGradient>
<path style="fill:url(#SVGID_1_);" d="M477.172,201.195l-0.171,0.07l-6.999-17.23l-37.06,15.054l0.395,0.971l-0.91-0.304
	c-8.286,24.814-22.287,53.383-83.918,78.416c-19.956,8.105-37.003,20.553-49.298,35.995c-13.263,16.66-20.382,36.026-20.586,56.008
	c-0.123,12.196,2.268,24.42,7.105,36.334c6.718,16.541,16.858,28.742,29.271,35.541c-5.174,13.434-9.322,28.123-11.77,43.992
	l-3.049,19.766l39.532,6.099l3.05-19.767c1.403-9.094,3.511-17.718,6.11-25.872c14.938,8.444,32.676,13.368,50.451,13.368
	c10.369,0,20.782-2.094,30.951-6.224c53.288-21.645,81.547-65.651,81.721-127.265C512.149,293.451,492.195,238.183,477.172,201.195z
	 M322.791,391.458c-2.835-6.98-4.237-14.005-4.168-20.876c0.231-22.629,17.871-44.355,44.938-55.35
	c35.926-14.592,59.48-31.262,75.508-48.447c-9.945,25.266-32.445,55.119-68.023,90.358c-10.62,10.518-25.224,27.014-38.367,48.869
	C327.91,402.567,324.556,395.801,322.791,391.458z M415.227,436.352c-5.365,2.18-10.715,3.284-15.899,3.284
	c-12.996,0-25.1-4.385-34.026-10.252c11.416-19.693,24.514-34.533,33.893-43.822c31.433-31.133,53.861-59.031,67.891-84.727
	c3.052,15.076,4.956,30.382,4.914,45.2C471.871,391.345,453.301,420.888,415.227,436.352z M112.062,173.919l0.837-1.209l0.19,0.723
	c28.3-7.445,61.702-9.342,114.037,26.883c20.506,14.194,43.663,21.774,66.092,21.773c2.938,0,5.867-0.13,8.773-0.393
	c27.419-2.478,51.359-16.612,67.411-39.802c11.994-17.328,15.061-32.058,14.326-43.606c15.27-3.506,30.341-8.536,44.545-14.99
	l18.209-8.273l-16.547-36.416l-18.208,8.273c-8.649,3.93-17.669,7.216-26.838,9.843c-1.355-30.02-15.469-56.966-38.432-72.861
	C323.694,8.109,298.985,0.11,273.015,0.091c-0.029,0-0.057,0-0.085,0c-36.59,0-74.047,17.068-111.329,50.73
	c-23.29,21.028-46.529,48.468-71.046,83.887l0,0l-11.382,16.444L112.062,173.919z M336.512,159.13
	c-9.315,13.458-22.497,21.318-38.12,22.729c-15.767,1.422-32.995-3.701-48.5-14.433c-32.36-22.399-59.786-32.94-83.56-36.756
	c10.83-2.528,23.29-3.717,37.469-3.581c19.887,0.198,44.488,3.57,77.423,10.612c10.159,2.173,29.068,6.217,51.624,6.388
	c3.57,0.025,7.175-0.06,10.799-0.228C342.78,149.289,339.11,155.378,336.512,159.13z M272.986,40.091
	c17.939,0.013,34.525,5.464,50.706,16.663c15.866,10.982,21.411,30.549,21.309,45.198c-0.004,0.598-0.028,1.191-0.052,1.784
	c-3.965,0.253-7.906,0.385-11.795,0.356c-18.48-0.141-34.182-3.499-43.564-5.505c-35.622-7.617-62.755-11.27-85.389-11.495
	c-8.267-0.078-16.172,0.244-23.713,0.962c32.615-31.879,63.549-47.963,92.442-47.963C272.946,40.091,272.969,40.091,272.986,40.091z
	 M235.168,472.056c-14.127-16.439-27.196-37.019-27.168-75.951c0.003-4.156,1.07-12.832,2.102-21.223
	c1.425-11.583,2.898-23.561,2.898-32.791c0-24.545-7.331-49.254-20.114-67.791c-15.655-22.705-38.409-35.209-64.067-35.209
	c-16.63,0-30.301,3.057-40.868,9.09c-9.022-11.617-19.706-23.002-32.375-33.494l-15.404-12.756l-25.513,30.807l15.403,12.757
	c7.094,5.874,13.422,12.149,19.093,18.609c-22.921,12.815-42.679,36.118-47.339,66.379C0.608,338.325,0.014,345.708,0,353.052
	c-0.054,28.003,8.399,53.076,25.126,74.522c13.745,17.623,33.241,32.839,57.948,45.226c39.316,19.71,84.628,29.135,121.182,35.004
	c1.881,0.404,3.78,0.758,5.699,1.054l19.768,3.045l6.089-39.534l-0.854-0.132L235.168,472.056z M128.819,279.091
	c30.475,0,44.182,36.841,44.182,63c0,6.778-1.381,18.004-2.599,27.908c-1.286,10.455-2.396,19.485-2.401,26.077
	c-0.013,17.883,2.174,33.01,5.788,46.025c-14.394-18.662-29.141-49.99-42.187-102.848c-3.543-14.356-10.107-35.053-21.872-57.272
	C113.635,280.354,119.882,279.091,128.819,279.091z M40,353.128c0.01-5.312,0.451-10.727,1.349-16.556
	c2.897-18.811,17.075-32.821,30.98-39.381c11.842,21.319,17.799,40.956,20.438,51.647c10.515,42.604,22.952,75.681,37.841,100.563
	c-10.184-3.542-20.153-7.62-29.607-12.359C59.884,416.429,39.931,388.981,40,353.128z"/>
<g>
</g>
<g>
</g>
<g>
</g>
<g>
</g>
<g>
</g>
<g>
</g>
<g>
</g>
<g>
</g>
<g>
</g>
<g>
</g>
<g>
</g>
<g>
</g>
<g>
</g>
<g>
</g>
<g>
</g>
</svg>
